<svg xmlns="http://www.w3.org/2000/svg" xmlns:xlink="http://www.w3.org/1999/xlink" id="Layer_1" viewBox="0 0 316 65"><defs><style>.cls-1{fill:url(#linear-gradient-2);}.cls-2{fill:url(#linear-gradient-6);}.cls-3{fill:#122d41;}.cls-4{fill:url(#linear-gradient-5);}.cls-5{fill:#fff;stroke:#122d41;stroke-miterlimit:10;stroke-width:2px;}.cls-6{fill:url(#linear-gradient-7);}.cls-7{fill:url(#linear-gradient-3);}.cls-8{fill:url(#linear-gradient);}.cls-9{fill:url(#linear-gradient-4);}.cls-10{fill:url(#linear-gradient-8);}</style><linearGradient id="linear-gradient" x1="15.56" y1="38.07" x2="19.42" y2="38.07" gradientUnits="userSpaceOnUse"><stop offset="0" stop-color="#51ceff"></stop><stop offset=".48" stop-color="#80ddc8"></stop><stop offset="1" stop-color="#9fe6a5"></stop></linearGradient><linearGradient id="linear-gradient-2" x1="12.91" y1="35.94" x2="16.95" y2="35.94" xlink:href="#linear-gradient"></linearGradient><linearGradient id="linear-gradient-3" x1="9.47" y1="27.55" x2="17.2" y2="27.55" xlink:href="#linear-gradient"></linearGradient><linearGradient id="linear-gradient-4" x1="18.36" y1="39.97" x2="21.5" y2="39.97" xlink:href="#linear-gradient"></linearGradient><linearGradient id="linear-gradient-5" x1="19.87" y1="29.38" x2="34.33" y2="29.38" xlink:href="#linear-gradient"></linearGradient><linearGradient id="linear-gradient-6" x1="31.77" y1="28.24" x2="38.53" y2="28.24" xlink:href="#linear-gradient"></linearGradient><linearGradient id="linear-gradient-7" x1="13.24" y1="34.25" x2="32.41" y2="34.25" xlink:href="#linear-gradient"></linearGradient><linearGradient id="linear-gradient-8" x1="21.08" y1="41.61" x2="23.73" y2="41.61" xlink:href="#linear-gradient"></linearGradient></defs><circle class="cls-3" cx="24" cy="32.5" r="21"></circle><rect class="cls-3" x="42" y="31.5" width="45" height="2"></rect><rect class="cls-5" x="87" y="7.5" width="225" height="50" rx="11.85" ry="11.85"></rect><g><path class="cls-3" d="M126.98,26.95h-4.59l-.87,2.05h-1.6l4.02-9.1h1.57l3.98,9.1h-1.64l-.87-2.05Zm-.58-1.36l-1.72-4.04-1.72,4.04h3.43Z"></path><path class="cls-3" d="M136.02,19.9v1.38h-2.89v7.72h-1.53v-7.72h-2.87v-1.38h7.29Z"></path><path class="cls-3" d="M143.1,29l-1.66-2.76c-.13,.01-.27,.01-.42,.01h-2.16v2.74h-1.53v-9.1h3.69c2.33,0,3.67,1.13,3.67,3.11,0,1.46-.68,2.48-1.88,2.95l2.04,3.04h-1.74Zm-2.08-4.12c1.4,0,2.21-.6,2.21-1.83s-.81-1.77-2.21-1.77h-2.16v3.6h2.16Z"></path><path class="cls-3" d="M152.61,26.95h-4.59l-.87,2.05h-1.6l4.02-9.1h1.57l3.98,9.1h-1.64l-.87-2.05Zm-.58-1.36l-1.72-4.04-1.72,4.04h3.43Z"></path><path class="cls-3" d="M157.86,19.9v9.1h-1.53v-9.1h1.53Z"></path><path class="cls-3" d="M166.13,26.95h-4.59l-.87,2.05h-1.6l4.02-9.1h1.57l3.98,9.1h-1.64l-.87-2.05Zm-.58-1.36l-1.72-4.04-1.72,4.04h3.43Z"></path><path class="cls-3" d="M180.24,19.9v1.38h-4.97v2.47h4.45v1.37h-4.45v2.51h5.12v1.38h-6.66v-9.1h6.5Z"></path><path class="cls-3" d="M187.71,19.9v9.1h-1.53v-9.1h1.53Z"></path><path class="cls-3" d="M191.92,19.9l3,6.04,2.99-6.04h1.81v9.1h-1.42v-6.8s-2.89,5.85-2.89,5.85h-1l-2.87-5.85v6.8h-1.44v-9.1h1.82Z"></path><path class="cls-3" d="M209.35,23.01c0,2.05-1.31,3.25-3.6,3.25h-2.09v2.74h-1.53v-9.1h3.63c2.29,0,3.6,1.13,3.6,3.11Zm-1.47,.04c0-1.2-.79-1.77-2.2-1.77h-2.03v3.6h2.03c1.4,0,2.2-.6,2.2-1.83Z"></path><path class="cls-3" d="M216.64,29l-1.66-2.76c-.13,.01-.27,.01-.42,.01h-2.16v2.74h-1.53v-9.1h3.69c2.33,0,3.67,1.13,3.67,3.11,0,1.46-.68,2.48-1.88,2.95l2.04,3.04h-1.74Zm-2.08-4.12c1.4,0,2.21-.6,2.21-1.83s-.81-1.77-2.21-1.77h-2.16v3.6h2.16Z"></path><path class="cls-3" d="M226.77,19.9v1.38h-4.97v2.47h4.45v1.37h-4.45v2.51h5.12v1.38h-6.66v-9.1h6.5Z"></path><path class="cls-3" d="M231.67,21.28c-.9,0-1.48,.34-1.48,.95,0,1.99,4.91,.92,4.9,4.2,0,1.62-1.43,2.63-3.43,2.63-1.43,0-2.78-.59-3.72-1.44l.66-1.33c.94,.86,2.11,1.33,3.08,1.33,1.07,0,1.7-.4,1.7-1.1,0-2.03-4.91-.9-4.91-4.13,0-1.56,1.34-2.54,3.31-2.54,1.18,0,2.34,.38,3.19,.94l-.64,1.35c-.99-.6-1.98-.84-2.67-.84Z"></path><path class="cls-3" d="M239.76,21.28c-.9,0-1.48,.34-1.48,.95,0,1.99,4.91,.92,4.9,4.2,0,1.62-1.43,2.63-3.43,2.63-1.43,0-2.78-.59-3.72-1.44l.66-1.33c.94,.86,2.11,1.33,3.08,1.33,1.07,0,1.7-.4,1.7-1.1,0-2.03-4.91-.9-4.91-4.13,0-1.56,1.34-2.54,3.31-2.54,1.18,0,2.34,.38,3.19,.94l-.64,1.35c-.99-.6-1.98-.84-2.67-.84Z"></path><path class="cls-3" d="M246.5,19.9v9.1h-1.53v-9.1h1.53Z"></path><path class="cls-3" d="M257.79,24.45c0,2.6-2.11,4.62-4.82,4.62s-4.82-2.02-4.82-4.62,2.11-4.59,4.82-4.59,4.82,1.99,4.82,4.59Zm-8.09,0c0,1.81,1.5,3.24,3.28,3.24s3.24-1.43,3.24-3.24-1.46-3.21-3.24-3.21-3.28,1.4-3.28,3.21Z"></path><path class="cls-3" d="M260.93,19.9l4.88,6.54v-6.54h1.51v9.1h-1.51l-4.85-6.53v6.53h-1.53v-9.1h1.51Z"></path><path class="cls-3" d="M276.22,19.9v1.38h-4.97v2.47h4.45v1.37h-4.45v2.51h5.12v1.38h-6.66v-9.1h6.5Z"></path><path class="cls-3" d="M153.79,36.88c-.9,0-1.48,.34-1.48,.95,0,1.99,4.91,.92,4.9,4.2,0,1.62-1.43,2.63-3.43,2.63-1.43,0-2.78-.58-3.72-1.44l.66-1.33c.94,.86,2.11,1.33,3.08,1.33,1.07,0,1.7-.4,1.7-1.1,0-2.03-4.91-.9-4.91-4.13,0-1.56,1.34-2.54,3.31-2.54,1.18,0,2.34,.38,3.19,.94l-.64,1.35c-.99-.6-1.98-.84-2.67-.84Z"></path><path class="cls-3" d="M165.5,35.5v1.38h-4.97v2.47h4.45v1.36h-4.45v2.51h5.12v1.38h-6.66v-9.1h6.5Z"></path><path class="cls-3" d="M171.33,43.29c1.48,0,2.41-.91,2.41-2.46v-5.33h1.53v5.33c0,2.38-1.5,3.83-3.95,3.83s-3.96-1.46-3.96-3.83v-5.33h1.53v5.33c0,1.53,.95,2.46,2.44,2.46Z"></path><path class="cls-3" d="M180.34,36.88c-.9,0-1.48,.34-1.48,.95,0,1.99,4.91,.92,4.9,4.2,0,1.62-1.43,2.63-3.43,2.63-1.43,0-2.78-.58-3.72-1.44l.66-1.33c.94,.86,2.11,1.33,3.08,1.33,1.07,0,1.7-.4,1.7-1.1,0-2.03-4.91-.9-4.91-4.13,0-1.56,1.34-2.54,3.31-2.54,1.18,0,2.34,.38,3.19,.94l-.64,1.35c-.99-.6-1.98-.84-2.67-.84Z"></path><path class="cls-3" d="M193.5,36.83c-1.82,0-3.25,1.4-3.25,3.2s1.43,3.21,3.25,3.21c.91,0,1.85-.42,2.54-1.08l.91,1.01c-.92,.91-2.24,1.5-3.52,1.5-2.67,0-4.73-2.02-4.73-4.63s2.09-4.58,4.78-4.58c1.29,0,2.57,.53,3.46,1.4l-.9,1.12c-.66-.71-1.61-1.16-2.54-1.16Z"></path><path class="cls-3" d="M200.04,35.5v7.71h3.94v1.39h-5.47v-9.1h1.53Z"></path><path class="cls-3" d="M206.98,35.5v9.1h-1.53v-9.1h1.53Z"></path><path class="cls-3" d="M215.88,35.5v1.38h-4.97v2.47h4.45v1.36h-4.45v2.51h5.12v1.38h-6.66v-9.1h6.5Z"></path><path class="cls-3" d="M219.41,35.5l4.88,6.54v-6.54h1.51v9.1h-1.51l-4.85-6.53v6.53h-1.53v-9.1h1.51Z"></path><path class="cls-3" d="M234.41,35.5v1.38h-2.89v7.72h-1.53v-7.72h-2.87v-1.38h7.29Z"></path><path class="cls-3" d="M242.23,35.5v1.38h-4.97v2.47h4.45v1.36h-4.45v2.51h5.12v1.38h-6.66v-9.1h6.5Z"></path><path class="cls-3" d="M247.13,36.88c-.9,0-1.48,.34-1.48,.95,0,1.99,4.91,.92,4.9,4.2,0,1.62-1.43,2.63-3.43,2.63-1.43,0-2.78-.58-3.72-1.44l.66-1.33c.94,.86,2.11,1.33,3.08,1.33,1.07,0,1.7-.4,1.7-1.1,0-2.03-4.91-.9-4.91-4.13,0-1.56,1.34-2.54,3.31-2.54,1.18,0,2.34,.38,3.19,.94l-.64,1.35c-.99-.6-1.98-.84-2.67-.84Z"></path></g><g><path class="cls-8" d="M19.17,37.83c.4-.49,.32-1.22-.18-1.62-.24-.19-.49-.28-.75-.28-.05,0-.09,0-.14,0-.31,.04-.58,.19-.77,.44l-1.52,1.97c-.17,.22-.26,.46-.26,.72,0,.35,.16,.68,.43,.9,.49,.4,1.22,.31,1.62-.18l1.57-1.95Z"></path><path class="cls-1" d="M15.15,37.7l1.53-1.97c.17-.23,.27-.49,.27-.78,0-.39-.18-.75-.49-1-.22-.17-.49-.26-.76-.26-.05,0-.11,0-.16,0-.34,.04-.63,.21-.84,.48l-1.53,1.97c-.42,.55-.33,1.34,.22,1.76,.27,.21,.59,.3,.93,.26,.34-.04,.63-.2,.84-.47h0Z"></path><path class="cls-7" d="M12.24,31.67l1.37-1.85,.49-.67h0s2.97-4.04,2.97-4.04h.01s.07-.1,.07-.1c.06-.08,.05-.2-.04-.27l-2.15-1.7s-.09-.04-.12-.04h-.03s-.09,.02-.14,.08l-5.17,7.02c-.07,.09-.05,.21,.04,.29l2.13,1.68s.1,.05,.16,.04c.04,0,.09-.02,.14-.08l.26-.35s0,0,0,0h0Z"></path><path class="cls-9" d="M21.28,39.87l.02-.03s0,0,0-.01c0,0,.01-.02,.02-.03,.11-.16,.17-.36,.17-.56,0-.32-.15-.61-.4-.79-.18-.13-.38-.2-.59-.2-.29,0-.58,.13-.77,.37l-1.16,1.43c-.17,.21-.25,.48-.21,.75,.04,.27,.17,.5,.39,.66l.08,.07c.18,.14,.44,.2,.71,.16s.49-.18,.65-.39l1.08-1.44Z"></path><path class="cls-4" d="M32.2,27.96h0l-.99-2.44-.59,.33c-.41,.23-.9,.33-1.38,.26l-5.12-.76c-.63-.09-1.28,.12-1.73,.55l-.49,.47h0s-1.88,1.81-1.88,1.81c-.12,.12-.15,.25-.15,.35,0,.15,.07,.35,.28,.44,.93,.44,2.02,.42,2.92-.05l.49-.26c.32-.17,.67-.25,1.02-.25,.49,0,.98,.16,1.37,.49l.25,.2,4.57,3.66c.22,.17,.45,.32,.69,.42,.08,.03,.17,.07,.25,.1,.06,.02,.12,.05,.19,.06,.09,.03,.15,.04,.21,.05,.1,.02,.19,.04,.28,.04,.11,.01,.19,.02,.26,.02,.2,0,.36,0,.52-.02l1.16-.16-2.14-5.29Z"></path><path class="cls-2" d="M34.95,23.14c-.03-.07-.07-.1-.11-.11-.03-.01-.09-.03-.16,0l-2.78,1.23c-.1,.05-.15,.16-.11,.26l.2,.48,.41,1,2.96,7.32c.07,.12,.18,.15,.26,.1l2.79-1.23c.1-.05,.15-.16,.1-.26l-3.56-8.8Z"></path><path class="cls-6" d="M32.31,34.31c-.1,0-.22-.03-.34-.05-.09-.01-.2-.04-.31-.07-.07-.02-.16-.05-.25-.08-.1-.04-.2-.08-.31-.12-.31-.14-.6-.32-.89-.54l-4.82-3.86c-.4-.32-.95-.38-1.4-.14l-.49,.26c-1.15,.61-2.55,.64-3.73,.07-.49-.23-.8-.72-.8-1.26,0-.38,.15-.74,.43-1l1.06-1.01h-1.87c-.34,0-.67-.12-.92-.35l-.13-.12-2.68,3.65s-.02,.03-.04,.05l-.24,.33-.74,1.01-.58,.78,.28,.21c.4,.29,.64,.76,.64,1.27v.13c.34-.35,.79-.59,1.28-.65,.58-.07,1.14,.08,1.6,.44,.53,.42,.83,1.04,.83,1.71,0,.04,0,.07,0,.11,.05,0,.1-.03,.15-.03,.55-.06,1.1,.09,1.53,.44,.59,.48,.85,1.18,.78,1.87,.46-.05,.94,.07,1.33,.37,.48,.36,.76,.91,.76,1.52,0,.01,0,.03,0,.05,.46-.07,.95,.02,1.35,.28,.55,.36,.89,.97,.89,1.63,0,.38-.11,.74-.31,1.05h.01c.41,.32,1.04,.29,1.41-.09,.22-.22,.34-.52,.31-.84-.02-.31-.17-.59-.42-.79l-2.7-2.11c-.2-.15-.23-.44-.08-.64,.15-.2,.44-.23,.64-.08l3.09,2.41c.39,.3,.93,.26,1.28-.09,.2-.2,.3-.48,.28-.77-.02-.29-.17-.54-.4-.71h0l-3.13-2.24c-.2-.15-.25-.43-.1-.64s.43-.25,.64-.1l3.27,2.34c.5,.35,1.19,.27,1.59-.2,.21-.25,.31-.58,.27-.9-.04-.33-.21-.62-.48-.81l-1.57-1.17-1.87-1.38c-.2-.15-.25-.43-.1-.64,.04-.05,.08-.09,.13-.11h0c.15-.1,.35-.09,.5,.02l3.8,2.81c.41,.3,1.02,.26,1.4-.11,.29-.29,.38-.71,.26-1.09-.02,0-.04,0-.05-.01h0Z"></path><path class="cls-10" d="M23.36,42.08l.21-.33c.11-.16,.16-.36,.16-.56,0-.35-.18-.68-.47-.87-.33-.21-.76-.21-1.1,0-.04,.02-.05,.04-.07,.05,0,0-.01,0-.02,.01,0,0,0,0,0,0-.02,.01-.04,.04-.06,.06-.13,.16-.45,.58-.74,.95-.16,.23-.23,.51-.18,.79,.05,.28,.21,.52,.45,.67l.06,.04c.22,.15,.5,.2,.76,.14,.27-.06,.5-.22,.65-.45l.33-.51s0,0,0,0h0Z"></path></g></svg>