<svg xmlns="http://www.w3.org/2000/svg" xmlns:xlink="http://www.w3.org/1999/xlink" id="Layer_1" viewBox="0 0 414 144"><defs><style>.cls-1{fill:#fff;}.cls-2{stroke:url(#linear-gradient-2);}.cls-2,.cls-3{fill:#122d41;stroke-miterlimit:10;stroke-width:3px;}.cls-4{fill:url(#linear-gradient-5);}.cls-5{fill:url(#linear-gradient-3);}.cls-6{fill:url(#linear-gradient-4);}.cls-3{stroke:url(#linear-gradient);}</style><linearGradient id="linear-gradient" x1="2" y1="102.68" x2="412" y2="102.68" gradientUnits="userSpaceOnUse"><stop offset="0" stop-color="#51ceff"></stop><stop offset=".48" stop-color="#80ddc8"></stop><stop offset="1" stop-color="#9fe6a5"></stop></linearGradient><linearGradient id="linear-gradient-2" x1="165.41" y1="46.18" x2="243.73" y2="46.18" xlink:href="#linear-gradient"></linearGradient><linearGradient id="linear-gradient-3" x1="192.95" y1="44.18" x2="229.33" y2="44.18" xlink:href="#linear-gradient"></linearGradient><linearGradient id="linear-gradient-4" x1="186.25" y1="28.47" x2="197.2" y2="28.47" xlink:href="#linear-gradient"></linearGradient><linearGradient id="linear-gradient-5" x1="184.67" y1="59.39" x2="202.78" y2="59.39" xlink:href="#linear-gradient"></linearGradient></defs><rect class="cls-3" x="3.5" y="69.87" width="407" height="65.61" rx="11.85" ry="11.85"></rect><circle class="cls-2" cx="204.57" cy="46.18" r="37.66"></circle><g><path class="cls-1" d="M30.14,99.19c-3.66,0-6.53,2.82-6.53,6.43s2.87,6.45,6.53,6.45c1.83,0,3.71-.84,5.09-2.17l1.83,2.04c-1.85,1.83-4.49,3-7.08,3-5.36,0-9.51-4.05-9.51-9.3s4.2-9.19,9.61-9.19c2.59,0,5.17,1.07,6.95,2.82l-1.8,2.25c-1.33-1.44-3.24-2.32-5.09-2.32Z"></path><path class="cls-1" d="M57.66,105.66c0,5.22-4.23,9.27-9.69,9.27s-9.69-4.05-9.69-9.27,4.23-9.22,9.69-9.22,9.69,4,9.69,9.22Zm-16.25,0c0,3.63,3,6.5,6.58,6.5s6.5-2.87,6.5-6.5-2.92-6.45-6.5-6.45-6.58,2.82-6.58,6.45Z"></path><path class="cls-1" d="M63.97,96.52l9.79,13.14v-13.14h3.03v18.28h-3.03l-9.74-13.11v13.11h-3.08v-18.28h3.03Z"></path><path class="cls-1" d="M93.89,96.52l-.03,2.77h-9.17v5.28h8.31v2.74h-8.31v7.5h-3.08v-18.28h12.28Z"></path><path class="cls-1" d="M99.7,96.52v18.28h-3.08v-18.28h3.08Z"></path><path class="cls-1" d="M116.1,114.81l-3.34-5.54c-.26,.03-.55,.03-.84,.03h-4.34v5.51h-3.08v-18.28h7.42c4.68,0,7.37,2.27,7.37,6.24,0,2.93-1.36,4.99-3.79,5.93l4.1,6.11h-3.5Zm-4.18-8.28c2.82,0,4.44-1.2,4.44-3.68s-1.62-3.55-4.44-3.55h-4.34v7.23h4.34Z"></path><path class="cls-1" d="M135.19,110.68h-9.22l-1.75,4.13h-3.21l8.07-18.28h3.16l7.99,18.28h-3.29l-1.75-4.13Zm-1.17-2.74l-3.45-8.12-3.45,8.12h6.9Z"></path><path class="cls-1" d="M153.51,96.52l9.79,13.14v-13.14h3.03v18.28h-3.03l-9.74-13.11v13.11h-3.08v-18.28h3.03Z"></path><path class="cls-1" d="M189.02,105.66c0,5.22-4.23,9.27-9.69,9.27s-9.69-4.05-9.69-9.27,4.23-9.22,9.69-9.22,9.69,4,9.69,9.22Zm-16.25,0c0,3.63,3,6.5,6.58,6.5s6.5-2.87,6.5-6.5-2.92-6.45-6.5-6.45-6.58,2.82-6.58,6.45Z"></path><path class="cls-1" d="M198.07,99.29c-1.8,0-2.98,.68-2.98,1.91,0,4,9.87,1.85,9.85,8.44,0,3.26-2.87,5.28-6.9,5.28-2.87,0-5.59-1.18-7.47-2.9l1.33-2.66c1.88,1.72,4.23,2.66,6.19,2.66,2.14,0,3.42-.81,3.42-2.22,0-4.07-9.87-1.8-9.87-8.31,0-3.13,2.69-5.09,6.66-5.09,2.38,0,4.7,.76,6.4,1.88l-1.28,2.72c-1.98-1.2-3.97-1.7-5.35-1.7Z"></path><path class="cls-1" d="M214.31,99.29c-1.8,0-2.98,.68-2.98,1.91,0,4,9.87,1.85,9.85,8.44,0,3.26-2.87,5.28-6.9,5.28-2.87,0-5.59-1.18-7.47-2.9l1.33-2.66c1.88,1.72,4.23,2.66,6.19,2.66,2.14,0,3.42-.81,3.42-2.22,0-4.07-9.87-1.8-9.87-8.31,0-3.13,2.69-5.09,6.66-5.09,2.38,0,4.7,.76,6.4,1.88l-1.28,2.72c-1.98-1.2-3.97-1.7-5.35-1.7Z"></path><path class="cls-1" d="M242.64,105.66c0,5.22-4.23,9.27-9.69,9.27s-9.69-4.05-9.69-9.27,4.23-9.22,9.69-9.22,9.69,4,9.69,9.22Zm-16.25,0c0,3.63,3,6.5,6.58,6.5s6.5-2.87,6.5-6.5-2.92-6.45-6.5-6.45-6.58,2.82-6.58,6.45Z"></path><path class="cls-1" d="M251.69,99.29c-1.8,0-2.98,.68-2.98,1.91,0,4,9.87,1.85,9.85,8.44,0,3.26-2.87,5.28-6.9,5.28-2.87,0-5.59-1.18-7.47-2.9l1.33-2.66c1.88,1.72,4.23,2.66,6.19,2.66,2.14,0,3.42-.81,3.42-2.22,0-4.07-9.87-1.8-9.87-8.31,0-3.13,2.69-5.09,6.66-5.09,2.38,0,4.7,.76,6.4,1.88l-1.28,2.72c-1.98-1.2-3.97-1.7-5.35-1.7Z"></path><path class="cls-1" d="M284.51,102.77c0,4.13-2.64,6.53-7.23,6.53h-4.21v5.51h-3.08v-18.28h7.29c4.6,0,7.23,2.27,7.23,6.24Zm-2.95,.08c0-2.4-1.59-3.55-4.41-3.55h-4.08v7.23h4.08c2.82,0,4.41-1.2,4.41-3.68Z"></path><path class="cls-1" d="M298.21,110.68h-9.22l-1.75,4.13h-3.21l8.07-18.28h3.16l7.99,18.28h-3.29l-1.75-4.13Zm-1.17-2.74l-3.45-8.12-3.45,8.12h6.9Z"></path><path class="cls-1" d="M313.35,99.19c-3.66,0-6.53,2.82-6.53,6.43s2.87,6.45,6.53,6.45c1.83,0,3.71-.84,5.09-2.17l1.83,2.04c-1.85,1.83-4.49,3-7.08,3-5.36,0-9.51-4.05-9.51-9.3s4.2-9.19,9.61-9.19c2.59,0,5.17,1.07,6.95,2.82l-1.8,2.25c-1.33-1.44-3.24-2.32-5.09-2.32Z"></path><path class="cls-1" d="M340.87,105.66c0,5.22-4.23,9.27-9.69,9.27s-9.69-4.05-9.69-9.27,4.23-9.22,9.69-9.22,9.69,4,9.69,9.22Zm-16.25,0c0,3.63,3,6.5,6.58,6.5s6.5-2.87,6.5-6.5-2.92-6.45-6.5-6.45-6.58,2.82-6.58,6.45Z"></path><path class="cls-1" d="M356.27,96.52v2.77h-5.8v15.51h-3.08v-15.51h-5.77v-2.77h14.65Z"></path><path class="cls-1" d="M371.96,96.52v2.77h-9.98v4.96h8.93v2.74h-8.93v5.04h10.29v2.77h-13.37v-18.28h13.06Z"></path><path class="cls-1" d="M381.8,99.29c-1.8,0-2.98,.68-2.98,1.91,0,4,9.87,1.85,9.85,8.44,0,3.26-2.87,5.28-6.9,5.28-2.87,0-5.59-1.18-7.47-2.9l1.33-2.66c1.88,1.72,4.23,2.66,6.19,2.66,2.14,0,3.42-.81,3.42-2.22,0-4.07-9.87-1.8-9.87-8.31,0-3.13,2.69-5.09,6.66-5.09,2.38,0,4.7,.76,6.4,1.88l-1.28,2.72c-1.98-1.2-3.97-1.7-5.35-1.7Z"></path></g><g><path class="cls-5" d="M211.14,25.99l-2.4,7.82c-.6,1.96-1.61,3.65-2.99,5.02-1.37,1.35-3.04,2.34-4.98,2.94l-7.82,2.4,7.82,2.4c1.96,.6,3.65,1.61,5,2.96,1.35,1.35,2.36,3.04,2.96,5l2.4,7.82,2.4-7.82c.6-1.96,1.61-3.65,2.96-5,1.35-1.35,3.04-2.36,5-2.97l7.82-2.4-7.82-2.4c-1.96-.6-3.65-1.61-5-2.96s-2.36-3.05-2.97-5l-2.4-7.82Z"></path><path class="cls-6" d="M191.72,23l-.49,1.59c-.26,.83-.69,1.56-1.26,2.13-.57,.57-1.29,1-2.13,1.26l-1.59,.49,1.59,.49c.83,.25,1.55,.69,2.13,1.26,.58,.57,1.01,1.29,1.27,2.13l.49,1.59,.49-1.59c.26-.84,.69-1.56,1.26-2.13,.57-.57,1.29-1,2.13-1.26l1.59-.49-1.59-.49c-.84-.26-1.56-.69-2.13-1.26-.57-.57-1-1.29-1.26-2.13l-.49-1.59Z"></path><path class="cls-4" d="M193.72,50.33l-1.03,3.35c-.35,1.15-.95,2.15-1.74,2.94-.79,.79-1.79,1.39-2.94,1.74l-3.35,1.03,3.35,1.03c1.15,.35,2.15,.95,2.96,1.77,.79,.81,1.37,1.79,1.72,2.92l1.03,3.35,1.03-3.35c.35-1.15,.95-2.14,1.74-2.94,.8-.8,1.79-1.39,2.94-1.74l3.35-1.03-3.35-1.03c-1.15-.35-2.14-.95-2.94-1.74-.8-.8-1.39-1.79-1.74-2.94l-1.03-3.35h0Z"></path></g></svg>