<svg xmlns="http://www.w3.org/2000/svg" xmlns:xlink="http://www.w3.org/1999/xlink" id="Layer_1" viewBox="0 0 316 65"><defs><style>.cls-1{fill:#122d41;}.cls-2{fill:#fff;stroke:#122d41;stroke-miterlimit:10;stroke-width:2px;}.cls-3{fill:url(#linear-gradient);}</style><linearGradient id="linear-gradient" x1="24" y1="46.65" x2="24" y2="18.35" gradientUnits="userSpaceOnUse"><stop offset="0" stop-color="#51ceff"></stop><stop offset=".48" stop-color="#80ddc8"></stop><stop offset="1" stop-color="#9fe6a5"></stop></linearGradient></defs><g><circle class="cls-1" cx="24" cy="32.5" r="21"></circle><path class="cls-3" d="M36,32.01c0-1.25-1.01-2.27-2.27-2.27-.81,0-1.52,.42-1.94,1.07v-.06c0-1.25-1.01-2.3-2.3-2.3-.81,0-1.52,.42-1.94,1.07v-.06c0-1.25-1.01-2.3-2.3-2.3-.81,0-1.52,.42-1.94,1.07v-7.63c0-.6-.24-1.19-.66-1.61-.42-.42-1.01-.66-1.61-.66-1.25,0-2.27,1.01-2.27,2.3v14.94c0,.12-.06,.24-.21,.3-.12,.06-.24,.03-.36-.06l-2.3-2.36c-.78-.78-2-.89-2.92-.27-.54,.36-.89,.95-.98,1.58-.09,.66,.09,1.31,.51,1.82l5.76,6.95c1.64,1.97,4.03,3.1,6.59,3.1h3.58c2,0,3.91-.78,5.31-2.21,1.43-1.43,2.21-3.31,2.21-5.31l.03-7.13Z"></path></g><rect class="cls-1" x="42" y="31.5" width="45" height="2"></rect><rect class="cls-2" x="87" y="7.5" width="225" height="50" rx="11.85" ry="11.85"></rect><g><path class="cls-1" d="M120.99,26.26v1.59h-5.73v2.85h5.13v1.57h-5.13v2.9h5.91v1.59h-7.68v-10.5h7.5Z"></path><path class="cls-1" d="M126.64,27.85c-1.04,0-1.71,.39-1.71,1.1,0,2.29,5.67,1.06,5.65,4.84,0,1.88-1.65,3.03-3.96,3.03-1.65,0-3.21-.67-4.29-1.67l.76-1.53c1.08,.99,2.43,1.53,3.56,1.53,1.23,0,1.96-.46,1.96-1.27,0-2.34-5.67-1.04-5.67-4.77,0-1.8,1.54-2.92,3.82-2.92,1.37,0,2.7,.44,3.68,1.08l-.74,1.56c-1.14-.69-2.28-.98-3.07-.98Z"></path><path class="cls-1" d="M137.34,27.79c-2.1,0-3.75,1.62-3.75,3.69s1.65,3.71,3.75,3.71c1.05,0,2.13-.48,2.93-1.25l1.05,1.17c-1.06,1.05-2.58,1.73-4.06,1.73-3.07,0-5.46-2.33-5.46-5.34s2.42-5.28,5.52-5.28c1.48,0,2.97,.61,3.99,1.62l-1.03,1.29c-.77-.82-1.86-1.33-2.93-1.33Z"></path><path class="cls-1" d="M153.15,31.51c0,3-2.43,5.33-5.56,5.33s-5.56-2.33-5.56-5.33,2.43-5.29,5.56-5.29,5.56,2.29,5.56,5.29Zm-9.33,0c0,2.08,1.72,3.73,3.78,3.73s3.73-1.65,3.73-3.73-1.68-3.7-3.73-3.7-3.78,1.62-3.78,3.7Z"></path><path class="cls-1" d="M156.81,26.26v8.89h4.54v1.6h-6.31v-10.5h1.77Z"></path><path class="cls-1" d="M164.82,26.26v4.56h5.56v-4.56h1.77v10.5h-1.77v-4.35h-5.56v4.35h-1.77v-10.5h1.77Z"></path><path class="cls-1" d="M181.69,34.39h-5.29l-1,2.37h-1.85l4.63-10.5h1.82l4.59,10.5h-1.89l-1-2.37Zm-.68-1.57l-1.98-4.67-1.98,4.67h3.96Z"></path><path class="cls-1" d="M193.79,27.85c-1.03,0-1.71,.39-1.71,1.1,0,2.29,5.67,1.06,5.65,4.84,0,1.88-1.65,3.03-3.96,3.03-1.65,0-3.21-.67-4.29-1.67l.77-1.53c1.08,.99,2.43,1.53,3.55,1.53,1.23,0,1.96-.46,1.96-1.27,0-2.34-5.67-1.04-5.67-4.77,0-1.8,1.54-2.92,3.83-2.92,1.36,0,2.7,.44,3.67,1.08l-.74,1.56c-1.14-.69-2.28-.98-3.08-.98Z"></path><path class="cls-1" d="M207.31,26.26v1.59h-5.73v2.85h5.13v1.57h-5.13v2.9h5.91v1.59h-7.68v-10.5h7.5Z"></path><path class="cls-1" d="M214.03,35.25c1.71,0,2.77-1.05,2.77-2.83v-6.15h1.77v6.15c0,2.74-1.72,4.42-4.56,4.42s-4.58-1.68-4.58-4.42v-6.15h1.77v6.15c0,1.77,1.1,2.83,2.82,2.83Z"></path><path class="cls-1" d="M233.95,29.85c0,2.37-1.51,3.75-4.16,3.75h-2.42v3.17h-1.77v-10.5h4.18c2.64,0,4.16,1.3,4.16,3.58Zm-1.7,.04c0-1.38-.92-2.04-2.53-2.04h-2.34v4.15h2.34c1.62,0,2.53-.69,2.53-2.11Z"></path><path class="cls-1" d="M241.82,34.39h-5.29l-1,2.37h-1.85l4.63-10.5h1.82l4.59,10.5h-1.89l-1.01-2.37Zm-.67-1.57l-1.98-4.67-1.98,4.67h3.96Z"></path><path class="cls-1" d="M250.52,27.79c-2.1,0-3.75,1.62-3.75,3.69s1.65,3.71,3.75,3.71c1.05,0,2.13-.48,2.92-1.25l1.05,1.17c-1.06,1.05-2.58,1.73-4.06,1.73-3.08,0-5.46-2.33-5.46-5.34s2.42-5.28,5.52-5.28c1.49,0,2.97,.61,3.99,1.62l-1.04,1.29c-.76-.82-1.86-1.33-2.92-1.33Z"></path><path class="cls-1" d="M266.33,31.51c0,3-2.43,5.33-5.56,5.33s-5.57-2.33-5.57-5.33,2.43-5.29,5.57-5.29,5.56,2.29,5.56,5.29Zm-9.33,0c0,2.08,1.73,3.73,3.78,3.73s3.73-1.65,3.73-3.73-1.68-3.7-3.73-3.7-3.78,1.62-3.78,3.7Z"></path><path class="cls-1" d="M275.18,26.26v1.59h-3.33v8.91h-1.77v-8.91h-3.32v-1.59h8.42Z"></path><path class="cls-1" d="M284.2,26.26v1.59h-5.73v2.85h5.13v1.57h-5.13v2.9h5.91v1.59h-7.68v-10.5h7.5Z"></path></g></svg>