<svg xmlns="http://www.w3.org/2000/svg" xmlns:xlink="http://www.w3.org/1999/xlink" id="Layer_1" viewBox="0 0 316 65"><defs><style>.cls-1{fill:url(#linear-gradient-2);}.cls-2{fill:#122d41;}.cls-3{fill:url(#linear-gradient-5);}.cls-4{fill:#fff;stroke:#122d41;stroke-miterlimit:10;stroke-width:2px;}.cls-5{fill:url(#linear-gradient-3);}.cls-6{fill:url(#linear-gradient);}.cls-7{fill:url(#linear-gradient-4);}</style><linearGradient id="linear-gradient" x1="27.28" y1="21.92" x2="32.57" y2="21.92" gradientUnits="userSpaceOnUse"><stop offset="0" stop-color="#51ceff"></stop><stop offset=".48" stop-color="#80ddc8"></stop><stop offset="1" stop-color="#9fe6a5"></stop></linearGradient><linearGradient id="linear-gradient-2" x1="30.99" y1="37.54" x2="34.7" y2="37.54" xlink:href="#linear-gradient"></linearGradient><linearGradient id="linear-gradient-3" x1="30.99" y1="31.05" x2="34.7" y2="31.05" xlink:href="#linear-gradient"></linearGradient><linearGradient id="linear-gradient-4" x1="14.3" y1="31.98" x2="32.84" y2="31.98" xlink:href="#linear-gradient"></linearGradient><linearGradient id="linear-gradient-5" x1="31.19" y1="44.26" x2="34.5" y2="44.26" xlink:href="#linear-gradient"></linearGradient></defs><circle class="cls-2" cx="24" cy="32.5" r="21"></circle><rect class="cls-2" x="42" y="31.5" width="45" height="2"></rect><rect class="cls-4" x="87" y="7.5" width="225" height="50" rx="11.85" ry="11.85"></rect><g><path class="cls-2" d="M103.84,29.84c0,2.37-1.52,3.75-4.16,3.75h-2.42v3.17h-1.77v-10.51h4.19c2.64,0,4.16,1.31,4.16,3.59Zm-1.7,.04c0-1.38-.92-2.04-2.54-2.04h-2.34v4.16h2.34c1.62,0,2.54-.69,2.54-2.12Z"></path><path class="cls-2" d="M112.26,36.76l-1.92-3.18c-.15,.02-.32,.02-.48,.02h-2.49v3.17h-1.77v-10.51h4.26c2.69,0,4.23,1.31,4.23,3.59,0,1.68-.78,2.87-2.18,3.41l2.36,3.51h-2.01Zm-2.4-4.76c1.62,0,2.55-.69,2.55-2.12s-.93-2.04-2.55-2.04h-2.49v4.16h2.49Z"></path><path class="cls-2" d="M123.96,26.25v1.59h-5.74v2.85h5.13v1.58h-5.13v2.9h5.92v1.59h-7.69v-10.51h7.51Z"></path><path class="cls-2" d="M133.81,26.25v1.59h-5.74v2.85h5.13v1.58h-5.13v2.9h5.92v1.59h-7.69v-10.51h7.51Z"></path><path class="cls-2" d="M137.89,26.25l5.63,7.55v-7.55h1.74v10.51h-1.74l-5.6-7.54v7.54h-1.77v-10.51h1.74Z"></path><path class="cls-2" d="M152.72,27.79c-2.1,0-3.75,1.62-3.75,3.69s1.65,3.71,3.75,3.71c1.05,0,2.13-.48,2.93-1.25l1.05,1.17c-1.07,1.05-2.58,1.73-4.07,1.73-3.08,0-5.47-2.33-5.47-5.35s2.42-5.29,5.53-5.29c1.49,0,2.97,.62,3.99,1.62l-1.04,1.29c-.77-.83-1.86-1.34-2.93-1.34Z"></path><path class="cls-2" d="M160.28,26.25v4.56h5.57v-4.56h1.77v10.51h-1.77v-4.35h-5.57v4.35h-1.77v-10.51h1.77Z"></path><path class="cls-2" d="M177.17,34.39h-5.3l-1.01,2.37h-1.85l4.64-10.51h1.82l4.59,10.51h-1.89l-1.01-2.37Zm-.68-1.58l-1.98-4.67-1.98,4.67h3.96Z"></path><path class="cls-2" d="M196.24,31.51c0,3-2.43,5.33-5.57,5.33s-5.57-2.33-5.57-5.33,2.43-5.3,5.57-5.3,5.57,2.3,5.57,5.3Zm-9.34,0c0,2.09,1.73,3.74,3.78,3.74s3.74-1.65,3.74-3.74-1.68-3.71-3.74-3.71-3.78,1.62-3.78,3.71Z"></path><path class="cls-2" d="M209.69,26.25l-.02,1.59h-5.27v3.03h4.77v1.58h-4.77v4.31h-1.77v-10.51h7.06Z"></path><path class="cls-2" d="M221.54,31.51c0,3-2.43,5.33-5.57,5.33s-5.57-2.33-5.57-5.33,2.43-5.3,5.57-5.3,5.57,2.3,5.57,5.3Zm-9.34,0c0,2.09,1.73,3.74,3.78,3.74s3.74-1.65,3.74-3.74-1.68-3.71-3.74-3.71-3.78,1.62-3.78,3.71Z"></path><path class="cls-2" d="M230.1,36.76l-1.92-3.18c-.15,.02-.32,.02-.48,.02h-2.49v3.17h-1.77v-10.51h4.26c2.69,0,4.23,1.31,4.23,3.59,0,1.68-.78,2.87-2.18,3.41l2.36,3.51h-2.01Zm-2.4-4.76c1.62,0,2.55-.69,2.55-2.12s-.93-2.04-2.55-2.04h-2.49v4.16h2.49Z"></path><path class="cls-2" d="M236.39,26.25l3.47,6.98,3.45-6.98h2.09v10.51h-1.64v-7.85s-3.33,6.76-3.33,6.76h-1.16l-3.32-6.76v7.85h-1.67v-10.51h2.1Z"></path><path class="cls-2" d="M252.56,35.25c1.71,0,2.78-1.05,2.78-2.84v-6.16h1.77v6.16c0,2.75-1.73,4.43-4.56,4.43s-4.58-1.68-4.58-4.43v-6.16h1.77v6.16c0,1.77,1.1,2.84,2.82,2.84Z"></path><path class="cls-2" d="M261.42,26.25v8.9h4.55v1.61h-6.32v-10.51h1.77Z"></path><path class="cls-2" d="M274.54,34.39h-5.3l-1.01,2.37h-1.85l4.64-10.51h1.82l4.59,10.51h-1.89l-1.01-2.37Zm-.68-1.58l-1.98-4.67-1.98,4.67h3.96Zm-1.43-7.72h-1.53l1.59-2.22,1.77,.75-1.83,1.47Z"></path><path class="cls-2" d="M285.5,36.76l-1.92-3.18c-.15,.02-.32,.02-.48,.02h-2.49v3.17h-1.77v-10.51h4.26c2.69,0,4.23,1.31,4.23,3.59,0,1.68-.78,2.87-2.18,3.41l2.36,3.51h-2.01Zm-2.4-4.76c1.62,0,2.55-.69,2.55-2.12s-.93-2.04-2.55-2.04h-2.49v4.16h2.49Z"></path><path class="cls-2" d="M291.46,26.25v10.51h-1.77v-10.51h1.77Z"></path><path class="cls-2" d="M304.5,31.51c0,3-2.43,5.33-5.57,5.33s-5.57-2.33-5.57-5.33,2.43-5.3,5.57-5.3,5.57,2.3,5.57,5.3Zm-9.34,0c0,2.09,1.73,3.74,3.78,3.74s3.74-1.65,3.74-3.74-1.68-3.71-3.74-3.71-3.78,1.62-3.78,3.71Z"></path></g><g><path class="cls-6" d="M27.28,19.27v5.29h5.29l-5.29-5.29Z"></path><g><path class="cls-1" d="M34.7,32.91h-3.71v9.27h3.71v-9.27Z"></path><path class="cls-5" d="M34.7,30.59c0-.12-.05-.24-.14-.33s-.2-.14-.33-.14h-2.78c-.26,0-.46,.21-.46,.46v1.39h3.71v-1.39Z"></path><path class="cls-7" d="M26.35,19h-9.27c-.74,0-1.44,.29-1.97,.81-.52,.52-.81,1.23-.81,1.97v20.4c0,.74,.29,1.44,.81,1.97,.52,.52,1.23,.81,1.97,.81h12.98c.36,0,.71-.07,1.04-.2l-.46-.81-.31-.51-.05-.07h0s-.04-.08-.06-.12c-.03-.05-.05-.11-.07-.17-.01-.03-.02-.06-.02-.09-.01-.04-.02-.09-.03-.13-.02-.07-.03-.14-.04-.21v-12.05c0-.37,.15-.72,.41-.98s.61-.41,.98-.41h1.39v-3.71h-6.03c-.26,0-.46-.21-.46-.46v-6.03Zm-9.73,3.24h6.49v.93h-6.49v-.93Zm0,3.71h6.49v.93h-6.49v-.93Zm12.05,12.05h-12.05v-.93h12.05v.93Zm0-3.71h-12.05v-.93h12.05v.93Zm0-4.64v.93h-12.05v-.93h12.05Z"></path></g><path class="cls-3" d="M32.27,43.1h-1.08l.21,.35,.34,.57,.15,.24,.55,.93c.08,.14,.23,.23,.4,.23s.32-.09,.4-.23l.7-1.17,.56-.93h-2.22Z"></path></g></svg>