<svg xmlns="http://www.w3.org/2000/svg" xmlns:xlink="http://www.w3.org/1999/xlink" id="Layer_1" viewBox="0 0 316 65"><defs><style>.cls-1{fill:#122d41;}.cls-2{fill:#fff;stroke:#122d41;stroke-miterlimit:10;stroke-width:2px;}.cls-3{fill:url(#linear-gradient);}</style><linearGradient id="linear-gradient" x1="12" y1="32.56" x2="36" y2="32.56" gradientUnits="userSpaceOnUse"><stop offset="0" stop-color="#51ceff"></stop><stop offset=".48" stop-color="#80ddc8"></stop><stop offset="1" stop-color="#9fe6a5"></stop></linearGradient></defs><circle class="cls-1" cx="24" cy="32.5" r="21"></circle><rect class="cls-1" x="42" y="31.5" width="45" height="2"></rect><rect class="cls-2" x="87" y="7.5" width="225" height="50" rx="11.85" ry="11.85"></rect><g><path class="cls-1" d="M116.57,28.53l-1.66-2.76c-.13,.01-.27,.01-.42,.01h-2.16v2.74h-1.53v-9.1h3.69c2.33,0,3.67,1.13,3.67,3.11,0,1.46-.68,2.48-1.88,2.95l2.04,3.04h-1.74Zm-2.08-4.12c1.4,0,2.21-.6,2.21-1.83s-.81-1.77-2.21-1.77h-2.16v3.6h2.16Z"></path><path class="cls-1" d="M126.7,19.43v1.38h-4.97v2.47h4.45v1.37h-4.45v2.51h5.12v1.38h-6.66v-9.1h6.5Z"></path><path class="cls-1" d="M132.78,20.76c-1.82,0-3.25,1.4-3.25,3.2s1.43,3.21,3.25,3.21c.91,0,1.85-.42,2.54-1.08l.91,1.01c-.92,.91-2.24,1.5-3.52,1.5-2.67,0-4.73-2.02-4.73-4.63s2.09-4.58,4.78-4.58c1.29,0,2.57,.53,3.46,1.4l-.9,1.12c-.66-.72-1.61-1.16-2.54-1.16Z"></path><path class="cls-1" d="M144.29,19.43v1.38h-4.97v2.47h4.45v1.37h-4.45v2.51h5.12v1.38h-6.66v-9.1h6.5Z"></path><path class="cls-1" d="M153.32,21.71c0,1.01-.61,1.78-1.6,2.03,1.22,.21,1.95,1.08,1.95,2.3,0,1.56-1.26,2.5-3.31,2.5h-4.04v-9.1h3.95c1.88,0,3.05,.86,3.05,2.27Zm-1.57,.27c0-.75-.58-1.18-1.56-1.17h-2.34v2.39h2.34c.98,0,1.56-.44,1.56-1.22Zm.35,3.86c0-.81-.72-1.3-1.91-1.29h-2.34v2.6h2.34c1.2,.01,1.91-.47,1.91-1.31Z"></path><path class="cls-1" d="M161.37,26.48h-4.59l-.87,2.05h-1.6l4.02-9.1h1.57l3.98,9.1h-1.64l-.87-2.05Zm-.58-1.36l-1.72-4.04-1.72,4.04h3.43Z"></path><path class="cls-1" d="M171.86,20.81c-.9,0-1.48,.34-1.48,.95,0,1.99,4.91,.92,4.9,4.2,0,1.62-1.43,2.63-3.43,2.63-1.43,0-2.78-.59-3.72-1.44l.66-1.33c.94,.86,2.11,1.33,3.08,1.33,1.07,0,1.7-.4,1.7-1.1,0-2.03-4.91-.9-4.91-4.13,0-1.56,1.34-2.54,3.32-2.54,1.18,0,2.34,.38,3.18,.94l-.64,1.35c-.99-.6-1.98-.84-2.66-.84Z"></path><path class="cls-1" d="M180.87,27.22c1.48,0,2.41-.91,2.41-2.46v-5.33h1.53v5.33c0,2.38-1.5,3.83-3.95,3.83s-3.96-1.46-3.96-3.83v-5.33h1.53v5.33c0,1.53,.95,2.46,2.44,2.46Z"></path><path class="cls-1" d="M192.62,26.48h-4.59l-.87,2.05h-1.6l4.02-9.1h1.57l3.98,9.1h-1.64l-.87-2.05Zm-.58-1.36l-1.72-4.04-1.71,4.04h3.43Z"></path><path class="cls-1" d="M201.77,19.43v7.71h3.94v1.39h-5.47v-9.1h1.53Z"></path><path class="cls-1" d="M216.07,23.98c0,2.6-2.11,4.62-4.82,4.62s-4.82-2.02-4.82-4.62,2.11-4.59,4.82-4.59,4.82,1.99,4.82,4.59Zm-8.09,0c0,1.81,1.5,3.24,3.28,3.24s3.24-1.43,3.24-3.24-1.46-3.21-3.24-3.21-3.28,1.4-3.28,3.21Z"></path><path class="cls-1" d="M223.57,24.06h1.34v3.35c-.92,.7-2.29,1.18-3.54,1.18-2.69,0-4.78-2.02-4.78-4.62s2.12-4.59,4.88-4.59c1.3,0,2.6,.49,3.5,1.27l-.87,1.13c-.7-.65-1.68-1.04-2.63-1.04-1.86,0-3.32,1.42-3.32,3.22s1.47,3.24,3.33,3.24c.68,0,1.44-.23,2.09-.62v-2.54Z"></path><path class="cls-1" d="M235.97,23.98c0,2.6-2.11,4.62-4.82,4.62s-4.82-2.02-4.82-4.62,2.11-4.59,4.82-4.59,4.82,1.99,4.82,4.59Zm-8.09,0c0,1.81,1.49,3.24,3.28,3.24s3.24-1.43,3.24-3.24-1.46-3.21-3.24-3.21-3.28,1.4-3.28,3.21Z"></path><path class="cls-1" d="M248.01,19.43v1.38h-4.97v2.47h4.45v1.37h-4.45v2.51h5.12v1.38h-6.66v-9.1h6.5Z"></path><path class="cls-1" d="M261.17,22.54c0,2.05-1.31,3.25-3.6,3.25h-2.09v2.74h-1.53v-9.1h3.63c2.29,0,3.6,1.13,3.6,3.11Zm-1.47,.04c0-1.2-.79-1.77-2.2-1.77h-2.03v3.6h2.03c1.4,0,2.2-.6,2.2-1.83Z"></path><path class="cls-1" d="M269.19,19.43v1.38h-4.97v2.47h4.45v1.37h-4.45v2.51h5.12v1.38h-6.66v-9.1h6.5Z"></path><path class="cls-1" d="M276.26,30.21c0,.75-.61,1.23-1.38,1.23-.43,0-.84-.14-1.14-.36l.29-.7c.22,.17,.49,.26,.75,.26,.38,0,.6-.27,.6-.53s-.2-.49-.62-.49c-.14,0-.31,.03-.46,.06l.47-1.09c-2.46-.21-4.3-2.15-4.3-4.62s2.09-4.58,4.78-4.58c1.29,0,2.57,.53,3.46,1.4l-.9,1.12c-.66-.72-1.61-1.16-2.54-1.16-1.82,0-3.25,1.4-3.25,3.2s1.43,3.21,3.25,3.21c.91,0,1.85-.42,2.54-1.08l.91,1.01c-.82,.81-1.94,1.35-3.08,1.47l-.29,.61c.55,.1,.91,.46,.91,1.03Z"></path><path class="cls-1" d="M286.09,26.48h-4.59l-.87,2.05h-1.6l4.02-9.1h1.57l3.98,9.1h-1.64l-.87-2.05Zm-.58-1.36l-1.72-4.04-1.72,4.04h3.43Z"></path><path class="cls-1" d="M104.68,45.13c-.7,.62-1.62,1-2.47,1-1.14,0-2.17-.71-2.9-1.94-2.72-.01-4.81-2.02-4.81-4.62s2.11-4.59,4.82-4.59,4.82,1.99,4.82,4.59c0,2.08-1.34,3.78-3.28,4.38,.49,.53,1,.84,1.52,.84,.48,0,1.08-.29,1.68-.75l.61,1.08Zm-5.34-2.31c1.78,0,3.24-1.43,3.24-3.24s-1.46-3.21-3.24-3.21-3.28,1.4-3.28,3.21,1.5,3.24,3.28,3.24Z"></path><path class="cls-1" d="M109.69,42.82c1.48,0,2.41-.91,2.41-2.46v-5.33h1.53v5.33c0,2.38-1.5,3.83-3.95,3.83s-3.96-1.46-3.96-3.83v-5.33h1.53v5.33c0,1.53,.95,2.46,2.44,2.46Z"></path><path class="cls-1" d="M121.44,42.08h-4.59l-.87,2.05h-1.6l4.02-9.1h1.57l3.98,9.1h-1.64l-.87-2.05Zm-.58-1.36l-1.72-4.04-1.72,4.04h3.43Z"></path><path class="cls-1" d="M126.67,35.03l4.88,6.54v-6.54h1.51v9.1h-1.51l-4.85-6.53v6.53h-1.53v-9.1h1.51Z"></path><path class="cls-1" d="M141.67,35.03v1.38h-2.89v7.72h-1.53v-7.72h-2.87v-1.38h7.29Z"></path><path class="cls-1" d="M147.96,42.08h-4.59l-.87,2.05h-1.6l4.02-9.1h1.57l3.98,9.1h-1.64l-.87-2.05Zm-.58-1.36l-1.72-4.04-1.72,4.04h3.43Z"></path><path class="cls-1" d="M154.47,36.41c-.9,0-1.48,.34-1.48,.95,0,1.99,4.91,.92,4.9,4.2,0,1.62-1.43,2.63-3.43,2.63-1.43,0-2.78-.58-3.72-1.44l.66-1.33c.94,.86,2.11,1.33,3.08,1.33,1.07,0,1.7-.4,1.7-1.1,0-2.03-4.91-.9-4.91-4.13,0-1.56,1.34-2.54,3.31-2.54,1.18,0,2.34,.38,3.19,.94l-.64,1.35c-.99-.6-1.98-.84-2.67-.84Z"></path><path class="cls-1" d="M169.46,42.08h-4.59l-.87,2.05h-1.6l4.02-9.1h1.57l3.98,9.1h-1.64l-.87-2.05Zm-.58-1.36l-1.72-4.04-1.72,4.04h3.43Z"></path><path class="cls-1" d="M174.71,35.03v7.71h3.94v1.39h-5.47v-9.1h1.53Z"></path><path class="cls-1" d="M186.33,35.03v1.38h-2.89v7.72h-1.53v-7.72h-2.87v-1.38h7.29Z"></path><path class="cls-1" d="M194.15,35.03v1.38h-4.97v2.47h4.45v1.36h-4.45v2.51h5.12v1.38h-6.66v-9.1h6.5Z"></path><path class="cls-1" d="M201.95,44.13l-1.66-2.76c-.13,.01-.27,.01-.42,.01h-2.16v2.74h-1.53v-9.1h3.69c2.33,0,3.67,1.13,3.67,3.11,0,1.46-.68,2.48-1.88,2.95l2.04,3.04h-1.74Zm-2.08-4.12c1.4,0,2.21-.6,2.21-1.83s-.81-1.77-2.21-1.77h-2.16v3.6h2.16Z"></path><path class="cls-1" d="M211.45,42.08h-4.59l-.87,2.05h-1.6l4.02-9.1h1.57l3.98,9.1h-1.64l-.87-2.05Zm-.58-1.36l-1.72-4.04-1.71,4.04h3.43Z"></path><path class="cls-1" d="M219.98,45.81c0,.75-.61,1.23-1.38,1.23-.43,0-.84-.14-1.14-.36l.29-.7c.22,.17,.49,.26,.75,.26,.38,0,.6-.27,.6-.53s-.2-.49-.62-.49c-.14,0-.31,.03-.46,.06l.47-1.09c-2.46-.21-4.3-2.15-4.3-4.61s2.09-4.58,4.79-4.58c1.29,0,2.57,.53,3.46,1.4l-.9,1.12c-.66-.71-1.61-1.16-2.54-1.16-1.82,0-3.25,1.4-3.25,3.2s1.43,3.21,3.25,3.21c.91,0,1.85-.42,2.54-1.08l.91,1.01c-.82,.81-1.94,1.35-3.08,1.47l-.29,.61c.55,.1,.91,.46,.91,1.03Z"></path><path class="cls-1" d="M232.69,39.58c0,2.6-2.11,4.62-4.82,4.62s-4.82-2.02-4.82-4.62,2.11-4.59,4.82-4.59,4.82,1.99,4.82,4.59Zm-8.09,0c0,1.81,1.5,3.24,3.28,3.24s3.24-1.43,3.24-3.24-1.46-3.21-3.24-3.21-3.28,1.4-3.28,3.21Zm4.11-5.71c-.78,0-1.11-.72-1.56-.72-.31,0-.48,.22-.48,.64h-.96c0-1.13,.42-1.7,1.2-1.7,.71,0,1.1,.72,1.55,.72,.33,0,.49-.22,.49-.64h.95c0,1.13-.4,1.7-1.18,1.7Z"></path><path class="cls-1" d="M240.83,35.03v1.38h-4.97v2.47h4.45v1.36h-4.45v2.51h5.12v1.38h-6.66v-9.1h6.5Z"></path><path class="cls-1" d="M245.73,36.41c-.9,0-1.48,.34-1.48,.95,0,1.99,4.92,.92,4.9,4.2,0,1.62-1.43,2.63-3.43,2.63-1.43,0-2.78-.58-3.72-1.44l.66-1.33c.94,.86,2.11,1.33,3.08,1.33,1.07,0,1.7-.4,1.7-1.1,0-2.03-4.91-.9-4.91-4.13,0-1.56,1.34-2.54,3.31-2.54,1.18,0,2.34,.38,3.19,.94l-.64,1.35c-.99-.6-1.98-.84-2.67-.84Z"></path><path class="cls-1" d="M264.27,45.13c-.7,.62-1.62,1-2.47,1-1.14,0-2.17-.71-2.9-1.94-2.72-.01-4.81-2.02-4.81-4.62s2.11-4.59,4.82-4.59,4.82,1.99,4.82,4.59c0,2.08-1.34,3.78-3.28,4.38,.49,.53,1,.84,1.52,.84,.48,0,1.08-.29,1.68-.75l.61,1.08Zm-5.34-2.31c1.78,0,3.24-1.43,3.24-3.24s-1.46-3.21-3.24-3.21-3.28,1.4-3.28,3.21,1.5,3.24,3.28,3.24Z"></path><path class="cls-1" d="M269.27,42.82c1.48,0,2.41-.91,2.41-2.46v-5.33h1.53v5.33c0,2.38-1.5,3.83-3.95,3.83s-3.97-1.46-3.97-3.83v-5.33h1.53v5.33c0,1.53,.95,2.46,2.44,2.46Z"></path><path class="cls-1" d="M276.94,35.03v9.1h-1.53v-9.1h1.53Z"></path><path class="cls-1" d="M282.21,36.41c-.9,0-1.48,.34-1.48,.95,0,1.99,4.91,.92,4.9,4.2,0,1.62-1.43,2.63-3.43,2.63-1.43,0-2.78-.58-3.72-1.44l.66-1.33c.94,.86,2.11,1.33,3.08,1.33,1.07,0,1.7-.4,1.7-1.1,0-2.03-4.91-.9-4.91-4.13,0-1.56,1.34-2.54,3.32-2.54,1.18,0,2.34,.38,3.18,.94l-.64,1.35c-.99-.6-1.98-.84-2.67-.84Z"></path><path class="cls-1" d="M293.92,35.03v1.38h-4.97v2.47h4.45v1.36h-4.45v2.51h5.12v1.38h-6.66v-9.1h6.5Z"></path><path class="cls-1" d="M301.72,44.13l-1.66-2.76c-.13,.01-.27,.01-.42,.01h-2.16v2.74h-1.53v-9.1h3.69c2.33,0,3.67,1.13,3.67,3.11,0,1.46-.68,2.48-1.89,2.95l2.04,3.04h-1.74Zm-2.08-4.12c1.4,0,2.21-.6,2.21-1.83s-.81-1.77-2.21-1.77h-2.16v3.6h2.16Z"></path></g><path class="cls-3" d="M14.43,30.91l2.97,1.23h0c-.33,.85-.6,1.72-.8,2.6l-.11,.51,4.26,4.26,.51-.11h0c.89-.2,1.76-.46,2.6-.8l1.23,2.97h0c.02,.06,.08,.1,.14,.12,.06,.01,.13,0,.17-.05l1.86-1.86h0c.61-.61,.94-1.46,.9-2.33l-.07-1.2c3.45-2.55,6.93-7.01,7.88-14.8,.05-.4-.08-.79-.36-1.08-.28-.28-.68-.42-1.08-.37-7.79,.96-12.25,4.45-14.8,7.88l-1.19-.06c-.87-.05-1.71,.27-2.33,.88l-1.86,1.86c-.05,.04-.08,.11-.06,.18,.01,.07,.06,.12,.13,.15h0Zm11.94-4.54c.43-.43,1.02-.67,1.63-.67,.61,0,1.2,.24,1.63,.68s.67,1.02,.67,1.63-.24,1.2-.67,1.63c-.43,.43-1.02,.68-1.63,.68-.61,0-1.2-.24-1.63-.67-.43-.43-.68-1.02-.68-1.63s.24-1.2,.68-1.63Zm-12.5,13.49c-.49-.17-1.02-.22-1.54-.12-.09,.02-.19,0-.26-.08-.08-.08-.11-.21-.06-.31,.55-1.17,1.99-3.53,4.61-1.63,.03,.02,.04,.06,.04,.1s-.02,.07-.04,.1c-.71,.56-1.11,1.43-1.08,2.33,0,.11,.09,.2,.2,.2,.9,.04,1.77-.36,2.33-1.06,.02-.03,.06-.05,.1-.05s.08,.02,.1,.05c.36,.43,1.36,1.85,.26,3.21h0c-.48,.58-1.18,.95-1.93,1.02-1.08,.12-3.06,.47-3.87,1.39-.07,.08-.17,.11-.27,.09-.1-.02-.18-.1-.21-.2-.29-.98-.73-3.17,1.62-5.05h0Z"></path></svg>